<svg width="30" height="9" viewBox="0 0 30 9" fill="none" xmlns="http://www.w3.org/2000/svg">
<path fill-rule="evenodd" clip-rule="evenodd" d="M21.8158 0.33196C21.2455 0.673114 19.9001 1.47011 19.3979 1.76691C19.0918 1.92797 18.3829 1.99829 17.982 1.43986C17.9748 1.42978 17.4487 0.750781 17.4272 0.725215C17.4122 0.707149 17.072 0.186062 16.3142 0.169771C16.2022 0.167029 15.6455 0.163964 15.1023 0.482858C14.3803 0.908938 12.7011 1.90054 12.7011 1.90054C12.7006 1.90054 12.7006 1.90143 12.6997 1.90143C12.0095 2.30936 11.4717 2.62697 11.4717 2.62697L12.1071 3.43308C12.4044 3.81431 13.0747 4.10926 13.656 3.76455C13.656 3.76455 15.8039 2.47978 15.8118 2.47607C16.7407 1.94982 17.4575 1.94982 17.9333 2.14564C18.3603 2.33203 18.7318 2.79642 18.7318 2.79642C18.7318 2.79642 19.2173 3.41791 19.303 3.52663C19.5792 3.87787 20.0364 3.73987 20.0364 3.73987C20.0364 3.73987 20.2059 3.72003 20.4613 3.56341C20.4613 3.56341 22.5418 2.31735 22.5432 2.31695C23.2038 1.91659 23.8097 1.84183 24.1194 1.87127C25.0893 1.96232 25.3906 2.66221 25.8112 3.15048C26.0588 3.43767 26.2823 3.60075 26.6241 3.59252C26.8486 3.5876 27.1023 3.44695 27.1397 3.42154L29.6311 1.93643C29.6311 1.93643 29.3755 1.53874 28.8519 0.919987C28.3834 0.36793 27.8857 0.617707 27.4889 0.820706C27.3222 0.905874 26.7181 1.3209 26.1197 1.61044C25.6933 1.81667 25.0809 1.75465 24.7452 1.32623C24.7251 1.30018 24.1821 0.621094 24.125 0.53754C23.9058 0.25397 23.4782 0 22.9301 0C22.5969 0 22.2187 0.0938779 21.8158 0.33196Z" fill="url(#paint0_linear_44035_2850)"/>
<path fill-rule="evenodd" clip-rule="evenodd" d="M0.0312323 6.13907C0.0312323 5.69565 0.0234243 5.32352 0 4.99172H0.812666L0.850769 5.56176H0.873569C1.05776 5.26053 1.3946 4.9043 2.02292 4.9043C2.51335 4.9043 2.89641 5.18988 3.05702 5.61709H3.07279C3.20327 5.40345 3.35599 5.24529 3.53207 5.13407C3.73914 4.9839 3.97674 4.9043 4.2832 4.9043C4.90364 4.9043 5.53148 5.33949 5.53148 6.57426V8.84531H4.61224V6.71693C4.61224 6.076 4.39806 5.69565 3.94629 5.69565C3.62397 5.69565 3.38621 5.93349 3.28728 6.2106C3.26401 6.30529 3.24106 6.42409 3.24106 6.53409V8.84531H2.3215V6.6137C2.3215 6.076 2.11498 5.69565 1.67819 5.69565C1.32574 5.69565 1.08853 5.98099 1.00404 6.24948C0.96547 6.34505 0.95001 6.45554 0.95001 6.56611V8.84531H0.0312323V6.13907Z" fill="#003A70"/>
<path fill-rule="evenodd" clip-rule="evenodd" d="M9.11263 7.91854C9.11263 8.26655 9.12793 8.60626 9.16627 8.84434H8.31558L8.25452 8.41713H8.23125C8.00154 8.71812 7.61082 8.93144 7.1282 8.93144C6.37722 8.93144 5.95605 8.37003 5.95605 7.7841C5.95605 6.8104 6.79082 6.3202 8.16996 6.32802V6.26447C8.16996 6.01114 8.07025 5.592 7.41148 5.592C7.04356 5.592 6.66034 5.7108 6.40767 5.8767L6.22356 5.24415C6.49989 5.0697 6.98297 4.90332 7.57241 4.90332C8.76806 4.90332 9.11263 5.68725 9.11263 6.5257V7.91854ZM8.19294 6.96037C7.52652 6.9444 6.89079 7.09474 6.89079 7.68042C6.89079 8.05989 7.12823 8.23434 7.42713 8.23434C7.80207 8.23434 8.07832 7.98101 8.16233 7.70414C8.18513 7.63292 8.19294 7.55348 8.19294 7.49041V6.96037Z" fill="#003A70"/>
<path fill-rule="evenodd" clip-rule="evenodd" d="M9.76514 6.13907C9.76514 5.69565 9.75671 5.32352 9.73438 4.99172H10.5611L10.6073 5.56935H10.63C10.791 5.269 11.1971 4.9043 11.8175 4.9043C12.4689 4.9043 13.1431 5.33949 13.1431 6.55845V8.84531H12.2009V6.66951C12.2009 6.11519 12.0017 5.69565 11.4883 5.69565C11.1129 5.69565 10.8525 5.97268 10.7526 6.26561C10.7225 6.35287 10.7145 6.47183 10.7145 6.58184V8.84531H9.76514V6.13907Z" fill="#003A70"/>
<path fill-rule="evenodd" clip-rule="evenodd" d="M17.2273 3.44238V7.76004C17.2273 8.15563 17.2424 8.58373 17.2578 8.84456H16.415L16.3772 8.23532H16.3616C16.1393 8.66285 15.6866 8.93166 15.1433 8.93166C14.2549 8.93166 13.5499 8.14838 13.5499 6.96135C13.5421 5.67134 14.3235 4.90354 15.2198 4.90354C15.7329 4.90354 16.101 5.12541 16.2693 5.41051H16.2848V3.44238H17.2273ZM16.2854 6.59585C16.2854 6.51754 16.2775 6.42213 16.2628 6.34325C16.1784 5.96338 15.8794 5.65457 15.4503 5.65457C14.8451 5.65457 14.508 6.20881 14.508 6.92894C14.508 7.63302 14.8451 8.1475 15.4427 8.1475C15.8256 8.1475 16.1629 7.87853 16.2547 7.45922C16.2775 7.3718 16.2854 7.27695 16.2854 7.17372V6.59585Z" fill="#003A70"/>
<path fill-rule="evenodd" clip-rule="evenodd" d="M17.8936 8.84554H18.8445V4.99219H17.8936V8.84554Z" fill="#003A70"/>
<path fill-rule="evenodd" clip-rule="evenodd" d="M19.5113 6.23295C19.5113 5.7109 19.5033 5.33845 19.4805 4.9906H20.3004L20.3304 5.7263H20.3622C20.5457 5.18029 20.9825 4.9906 21.3807 4.9906C21.4725 4.9906 21.526 4.97439 21.6029 4.9906V5.84551C21.526 5.8297 21.4419 5.81389 21.327 5.81389C20.8751 5.81389 20.5684 6.11432 20.4842 6.54927C20.4693 6.63637 20.4538 6.73968 20.4538 6.85098V8.84444H19.5113V6.23295Z" fill="#003A70"/>
<path fill-rule="evenodd" clip-rule="evenodd" d="M22.04 8.84554H22.9896V4.99219H22.04V8.84554Z" fill="#003A70"/>
<defs>
<linearGradient id="paint0_linear_44035_2850" x1="11.4717" y1="3.9172" x2="29.6311" y2="3.9172" gradientUnits="userSpaceOnUse">
<stop stop-color="#FFCA06"/>
<stop offset="0.330844" stop-color="#FBAA18"/>
<stop offset="0.694742" stop-color="#FFC907"/>
<stop offset="1" stop-color="#FAA619"/>
</linearGradient>
</defs>
</svg>
